<?xml version="1.0" encoding="UTF-8" standalone="no"?>
<!-- Created with Inkscape (http://www.inkscape.org/) -->

<svg
   xmlns:dc="http://purl.org/dc/elements/1.1/"
   xmlns:cc="http://creativecommons.org/ns#"
   xmlns:rdf="http://www.w3.org/1999/02/22-rdf-syntax-ns#"
   xmlns:svg="http://www.w3.org/2000/svg"
   xmlns="http://www.w3.org/2000/svg"
   xmlns:sodipodi="http://sodipodi.sourceforge.net/DTD/sodipodi-0.dtd"
   xmlns:inkscape="http://www.inkscape.org/namespaces/inkscape"
   version="1.1"
   id="svg4589"
   xml:space="preserve"
   width="586.82678"
   height="530.13385"
   viewBox="0 0 586.82678 530.13385"
   sodipodi:docname="bottom.svg"
   inkscape:version="0.92.3 (2405546, 2018-03-11)"><metadata
     id="metadata4595"><rdf:RDF><cc:Work
         rdf:about=""><dc:format>image/svg+xml</dc:format><dc:type
           rdf:resource="http://purl.org/dc/dcmitype/StillImage" /><dc:title></dc:title></cc:Work></rdf:RDF></metadata><defs
     id="defs4593" /><sodipodi:namedview
     pagecolor="#ffffff"
     bordercolor="#666666"
     borderopacity="1"
     objecttolerance="10"
     gridtolerance="10"
     guidetolerance="10"
     inkscape:pageopacity="0"
     inkscape:pageshadow="2"
     inkscape:window-width="1920"
     inkscape:window-height="1017"
     id="namedview4591"
     showgrid="false"
     fit-margin-top="0"
     fit-margin-left="0"
     fit-margin-right="0"
     fit-margin-bottom="0"
     inkscape:zoom="0.59480041"
     inkscape:cx="894.05225"
     inkscape:cy="255.05213"
     inkscape:window-x="1912"
     inkscape:window-y="-8"
     inkscape:window-maximized="1"
     inkscape:current-layer="g4597" /><g
     id="g4597"
     inkscape:groupmode="layer"
     inkscape:label="bottom"
     transform="matrix(1.3333333,0,0,-1.3333333,-24.699999,554.83385)"><g
       id="g4713"
       style="stroke:#db0000;stroke-opacity:1"><g
         id="g4601"
         transform="translate(18.9,18.9)"
         style="stroke:#db0000;stroke-opacity:1"><path
           d="m 323.21164,111.26478 -1.71002,1.04 -0.85462,1.26247 -0.47378,1.94458 0.28839,1.497 1.04001,1.71 1.26245,0.85464 1.94455,0.47378 1.49704,-0.28838 1.71002,-1.04004 0.85461,-1.26243 0.47379,-1.94457 -0.28839,-1.49702 -1.04004,-1.71003 -1.26245,-0.85462 -1.94458,-0.47377 -1.49698,0.28839"
           style="fill:none;stroke:#db0000;stroke-width:0.75;stroke-linecap:butt;stroke-linejoin:miter;stroke-miterlimit:10;stroke-dasharray:none;stroke-opacity:1"
           id="path4603"
           inkscape:connector-curvature="0" /><path
           d="m 407.54233,111.26478 -1.71002,1.04 -0.85462,1.26247 -0.47378,1.94458 0.28842,1.497 1.03998,1.71 1.26245,0.85464 1.94458,0.47378 1.49701,-0.28838 1.71005,-1.04004 0.85458,-1.26243 0.47379,-1.94457 -0.28839,-1.49702 -1.03998,-1.71003 -1.26248,-0.85462 -1.94458,-0.47377 -1.49701,0.28839"
           style="fill:none;stroke:#db0000;stroke-width:0.75;stroke-linecap:butt;stroke-linejoin:miter;stroke-miterlimit:10;stroke-dasharray:none;stroke-opacity:1"
           id="path4605"
           inkscape:connector-curvature="0" /><path
           d="m 397.17453,36 -0.49875,1.44065 0.0457,2.00094 0.66601,1.37133 1.44718,1.3826 1.44061,0.49876 2.00097,-0.04566 1.37128,-0.66603 1.38266,-1.44716 0.49872,-1.44062 -0.0456,-2.00093 -0.66602,-1.37136 -1.4472,-1.3826 -1.44056,-0.49874 -2.00097,0.04565 -1.37134,0.66601 L 397.17453,36"
           style="fill:none;stroke:#db0000;stroke-width:0.75;stroke-linecap:butt;stroke-linejoin:miter;stroke-miterlimit:10;stroke-dasharray:none;stroke-opacity:1"
           id="path4607"
           inkscape:connector-curvature="0" /><path
           d="m 68.17324,276.3071 -1.49701,0.28839 -1.71002,1.03998 -0.85464,1.26248 -0.47378,1.94458 0.2884,1.49701 1.04002,1.71002 1.26245,0.85461 1.94458,0.47379 1.49698,-0.28842 1.71005,-1.03998 0.85462,-1.26245 0.47377,-1.94458 -0.28839,-1.49701 -1.04001,-1.71005 -1.26246,-0.85459 -1.94456,-0.47378"
           style="fill:none;stroke:#db0000;stroke-width:0.75;stroke-linecap:butt;stroke-linejoin:miter;stroke-miterlimit:10;stroke-dasharray:none;stroke-opacity:1"
           id="path4609"
           inkscape:connector-curvature="0" /><path
           d="m 323.21164,277.09155 -1.71002,1.04001 -0.85462,1.26245 -0.47378,1.94458 0.28839,1.49698 1.04001,1.71005 1.26245,0.85462 1.94455,0.47378 1.49704,-0.28836 1.71002,-1.04004 0.85461,-1.26248 0.47379,-1.94455 -0.28839,-1.49701 -1.04001,-1.71002 -1.26248,-0.85461 -1.94458,-0.47379 -1.49698,0.28839"
           style="fill:none;stroke:#db0000;stroke-width:0.75;stroke-linecap:butt;stroke-linejoin:miter;stroke-miterlimit:10;stroke-dasharray:none;stroke-opacity:1"
           id="path4611"
           inkscape:connector-curvature="0" /><path
           d="m 407.54233,277.09155 -1.71002,1.04001 -0.85462,1.26245 -0.47378,1.94458 0.28842,1.49698 1.03998,1.71005 1.26245,0.85462 1.94458,0.47378 1.49701,-0.28836 1.71005,-1.04004 0.85458,-1.26248 0.47379,-1.94455 -0.28839,-1.49701 -1.03998,-1.71002 -1.26248,-0.85461 -1.94458,-0.47379 -1.49701,0.28839"
           style="fill:none;stroke:#db0000;stroke-width:0.75;stroke-linecap:butt;stroke-linejoin:miter;stroke-miterlimit:10;stroke-dasharray:none;stroke-opacity:1"
           id="path4613"
           inkscape:connector-curvature="0" /><path
           d="m 258.99768,195.21819 -0.85461,1.26242 -0.47379,1.94459 0.28839,1.497 1.04001,1.71005 1.26245,0.85461 1.94455,0.47377 1.49704,-0.28839 1.71002,-1.03999 0.85462,-1.26247 0.47375,-1.94458 -0.28836,-1.49701 -1.04001,-1.71 -1.26245,-0.85463 -1.94461,-0.47379 -1.49698,0.28841 -1.71002,1.04001"
           style="fill:none;stroke:#db0000;stroke-width:0.75;stroke-linecap:butt;stroke-linejoin:miter;stroke-miterlimit:10;stroke-dasharray:none;stroke-opacity:1"
           id="path4615"
           inkscape:connector-curvature="0" /><path
           d="m 118.61154,256.93662 -0.96092,1.75567 -0.10889,1.52063 0.56196,1.92096 0.99826,1.15225 1.7557,0.96091 1.52062,0.10889 1.92092,-0.56202 1.15226,-0.99819 0.96093,-1.75574 0.10889,-1.5206 -0.56197,-1.92099 -0.99826,-1.15219 -1.75569,-0.96094 -1.52062,-0.1089 -1.92097,0.56201 -1.15222,0.99825"
           style="fill:none;stroke:#db0000;stroke-width:0.75;stroke-linecap:butt;stroke-linejoin:miter;stroke-miterlimit:10;stroke-dasharray:none;stroke-opacity:1"
           id="path4617"
           inkscape:connector-curvature="0" /><path
           d="m 203.44788,112.6821 -1.71004,1.04 -0.85462,1.26247 -0.47377,1.94457 0.2884,1.49702 1.03999,1.71 1.26245,0.85464 1.9446,0.47377 1.49697,-0.28838 1.71004,-1.04003 0.85463,-1.26244 0.47379,-1.94458 -0.28841,-1.49701 -1.04001,-1.71003 -1.26247,-0.85461 -1.94454,-0.47378 -1.49701,0.28839"
           style="fill:none;stroke:#db0000;stroke-width:0.75;stroke-linecap:butt;stroke-linejoin:miter;stroke-miterlimit:10;stroke-dasharray:none;stroke-opacity:1"
           id="path4619"
           inkscape:connector-curvature="0" /><path
           d="m 397.68237,355.65314 -0.96093,1.7557 -0.10889,1.5206 0.56198,1.92093 0.99826,1.15229 1.75568,0.96093 1.52066,0.10889 1.92087,-0.56195 1.15228,-0.99832 0.96094,-1.75568 0.10888,-1.52063 -0.56195,-1.92096 -0.99829,-1.15222 -1.75565,-0.96094 -1.52066,-0.10885 -1.92092,0.56192 -1.15226,0.99829"
           style="fill:none;stroke:#db0000;stroke-width:0.75;stroke-linecap:butt;stroke-linejoin:miter;stroke-miterlimit:10;stroke-dasharray:none;stroke-opacity:1"
           id="path4621"
           inkscape:connector-curvature="0" /><path
           d="m 151.43213,276.59549 -1.71004,1.03998 -0.85461,1.26248 -0.47379,1.94458 0.28839,1.49701 1.04001,1.71002 1.26245,0.85461 1.9446,0.47379 1.49699,-0.28842 1.71002,-1.03998 0.85462,-1.26245 0.4738,-1.94458 -0.28839,-1.49701 -1.04003,-1.71005 -1.26246,-0.85459 -1.94455,-0.47378 -1.49701,0.28839"
           style="fill:none;stroke:#db0000;stroke-width:0.75;stroke-linecap:butt;stroke-linejoin:miter;stroke-miterlimit:10;stroke-dasharray:none;stroke-opacity:1"
           id="path4623"
           inkscape:connector-curvature="0" /><path
           d="m 203.44788,275.67426 -1.71004,1.03997 -0.85462,1.26245 -0.47377,1.94458 0.2884,1.49698 1.03999,1.71006 1.26245,0.85464 1.9446,0.47376 1.49697,-0.28837 1.71004,-1.04003 0.85463,-1.26246 0.47379,-1.94458 -0.28841,-1.497 -1.04001,-1.71003 -1.26247,-0.85461 -1.94454,-0.47379 -1.49701,0.28843"
           style="fill:none;stroke:#db0000;stroke-width:0.75;stroke-linecap:butt;stroke-linejoin:miter;stroke-miterlimit:10;stroke-dasharray:none;stroke-opacity:1"
           id="path4625"
           inkscape:connector-curvature="0" /><path
           d="m 78.66142,131.21391 -1.15223,0.99828 -0.96094,1.75569 -0.1089,1.52065 0.56199,1.92094 0.99826,1.15222 1.75567,0.96092 1.52064,0.10891 1.92094,-0.56197 1.15224,-0.99826 0.96093,-1.75569 0.10889,-1.52063 -0.56197,-1.92096 -0.99826,-1.15224 -1.7557,-0.96091 -1.52062,-0.10888 -1.92094,0.56193"
           style="fill:none;stroke:#db0000;stroke-width:0.75;stroke-linecap:butt;stroke-linejoin:miter;stroke-miterlimit:10;stroke-dasharray:none;stroke-opacity:1"
           id="path4627"
           inkscape:connector-curvature="0" /><path
           d="m 77.72211,256.65912 -0.85462,1.26242 -0.47379,1.94464 0.2884,1.49695 1.04001,1.71008 1.26246,0.85455 1.94457,0.47385 1.49699,-0.28842 1.71004,-1.03998 0.85461,-1.26248 0.47378,-1.94455 -0.28838,-1.49704 -1.04001,-1.71002 -1.26246,-0.85462 -1.94457,-0.47381 -1.497,0.28842 -1.71003,1.04001"
           style="fill:none;stroke:#db0000;stroke-width:0.75;stroke-linecap:butt;stroke-linejoin:miter;stroke-miterlimit:10;stroke-dasharray:none;stroke-opacity:1"
           id="path4629"
           inkscape:connector-curvature="0" /><path
           d="m 156.90361,131.42685 -1.3826,1.44716 -0.49873,1.44064 0.0456,2.00095 0.666,1.37135 1.44718,1.3826 1.44061,0.49872 2.00098,-0.0457 1.37132,-0.666 1.3826,-1.44714 0.49875,-1.44064 -0.0457,-2.00095 -0.66601,-1.37135 -1.44716,-1.38262 -1.44063,-0.4987 -2.00096,0.0456 -1.37134,0.66599"
           style="fill:none;stroke:#db0000;stroke-width:0.75;stroke-linecap:butt;stroke-linejoin:miter;stroke-miterlimit:10;stroke-dasharray:none;stroke-opacity:1"
           id="path4631"
           inkscape:connector-curvature="0" /><path
           d="m 407.81656,233.4859 -0.85462,1.26242 -0.47378,1.9446 0.28839,1.49699 1.04001,1.71004 1.26245,0.85464 1.94458,0.47377 1.49701,-0.28839 1.71005,-1.04002 0.85459,-1.26247 0.47378,-1.94456 -0.28839,-1.49701 -1.03998,-1.71001 -1.26248,-0.85461 -1.94458,-0.47377 -1.49701,0.28837 -1.71002,1.04001"
           style="fill:none;stroke:#db0000;stroke-width:0.75;stroke-linecap:butt;stroke-linejoin:miter;stroke-miterlimit:10;stroke-dasharray:none;stroke-opacity:1"
           id="path4633"
           inkscape:connector-curvature="0" /><path
           d="m 65.62804,112.29301 -1.38262,1.44713 -0.49874,1.44067 0.04566,2.00092 0.66601,1.37136 1.44718,1.38259 1.44062,0.49875 2.00093,-0.0457 1.37135,-0.66602 1.38261,-1.44716 0.49873,-1.44064 -0.04565,-2.00092 -0.66601,-1.37139 -1.44717,-1.38256 -1.44063,-0.49875 -2.00094,0.0457 -1.37133,0.66602"
           style="fill:none;stroke:#db0000;stroke-width:0.75;stroke-linecap:butt;stroke-linejoin:miter;stroke-miterlimit:10;stroke-dasharray:none;stroke-opacity:1"
           id="path4635"
           inkscape:connector-curvature="0" /><path
           d="m 34.33992,36 -0.49874,1.44065 0.04565,2.00094 0.66601,1.37133 1.44716,1.3826 1.44064,0.49876 2.00093,-0.04566 1.37135,-0.66603 1.38261,-1.44716 0.49874,-1.44062 -0.04565,-2.00093 -0.66601,-1.37137 -1.44718,-1.38259 -1.44063,-0.49874 -2.00094,0.04565 -1.37134,0.66601 L 34.33992,36"
           style="fill:none;stroke:#db0000;stroke-width:0.75;stroke-linecap:butt;stroke-linejoin:miter;stroke-miterlimit:10;stroke-dasharray:none;stroke-opacity:1"
           id="path4637"
           inkscape:connector-curvature="0" /><path
           d="m 150.38391,112.29301 -1.38257,1.44713 -0.49876,1.44067 0.0456,2.00092 0.66604,1.37136 1.44715,1.38259 1.44064,0.49875 2.00093,-0.0457 1.37134,-0.66602 1.3826,-1.44716 0.49876,-1.44064 -0.0456,-2.00092 -0.66603,-1.37139 -1.44718,-1.38256 -1.44061,-0.49875 -2.00095,0.0457 -1.37135,0.66602"
           style="fill:none;stroke:#db0000;stroke-width:0.75;stroke-linecap:butt;stroke-linejoin:miter;stroke-miterlimit:10;stroke-dasharray:none;stroke-opacity:1"
           id="path4639"
           inkscape:connector-curvature="0" /><path
           d="m 34.84776,355.65314 -0.96093,1.7557 -0.10889,1.5206 0.56198,1.92093 0.99825,1.15229 1.75569,0.96093 1.52064,0.10889 1.92093,-0.56195 1.15226,-0.99832 0.96093,-1.75568 0.10888,-1.52063 -0.56197,-1.92096 -0.99826,-1.15222 -1.7557,-0.96094 -1.52061,-0.10885 -1.92096,0.56192 -1.15224,0.99829"
           style="fill:none;stroke:#db0000;stroke-width:0.75;stroke-linecap:butt;stroke-linejoin:miter;stroke-miterlimit:10;stroke-dasharray:none;stroke-opacity:1"
           id="path4641"
           inkscape:connector-curvature="0" /><path
           d="m 309.02917,233.4859 -0.85461,1.26242 -0.47382,1.9446 0.28843,1.49699 1.04,1.71004 1.26246,0.85464 1.94458,0.47377 1.49697,-0.28839 1.71009,-1.04002 0.85458,-1.26247 0.47379,-1.94456 -0.28839,-1.49701 -1.03998,-1.71001 -1.26248,-0.85461 -1.94458,-0.47377 -1.49701,0.28837 -1.71003,1.04001"
           style="fill:none;stroke:#db0000;stroke-width:0.75;stroke-linecap:butt;stroke-linejoin:miter;stroke-miterlimit:10;stroke-dasharray:none;stroke-opacity:1"
           id="path4643"
           inkscape:connector-curvature="0" /><path
           d="m 408.47839,156.44261 -1.3826,1.44718 -0.49874,1.44061 0.0456,2.00094 0.66605,1.37136 1.44717,1.38258 1.44061,0.49877 2.00098,-0.0457 1.37134,-0.66603 1.38257,-1.44714 0.49874,-1.44065 -0.0457,-2.00094 -0.66599,-1.37134 -1.44714,-1.3826 -1.44064,-0.49876 -2.00095,0.0456 -1.37134,0.66603"
           style="fill:none;stroke:#db0000;stroke-width:0.75;stroke-linecap:butt;stroke-linejoin:miter;stroke-miterlimit:10;stroke-dasharray:none;stroke-opacity:1"
           id="path4645"
           inkscape:connector-curvature="0" /><path
           d="m 309.96848,156.22969 -1.15223,0.99825 -0.96096,1.75569 -0.10889,1.52063 0.56201,1.92096 0.99823,1.15222 1.75571,0.96095 1.52063,0.10889 1.92096,-0.562 1.15225,-0.99824 0.96091,-1.7557 0.10888,-1.52064 -0.56198,-1.92091 -0.99823,-1.15227 -1.75574,-0.96094 -1.5206,-0.10889 -1.92095,0.562"
           style="fill:none;stroke:#db0000;stroke-width:0.75;stroke-linecap:butt;stroke-linejoin:miter;stroke-miterlimit:10;stroke-dasharray:none;stroke-opacity:1"
           id="path4647"
           inkscape:connector-curvature="0" /><path
           d="m 353.38943,277.08664 -0.56637,1.36728 -0.19315,1.46734 v 1.99726 l 0.19315,2.30469 0.56637,1.36734 0.90094,1.17413 1.17417,0.901 1.36734,0.56635 1.46731,0.19317 h 11.98349 5.02436 l 1.46734,-0.19317 1.36731,-0.56635 1.17417,-0.901 0.90097,-1.17413 0.56634,-1.36734 0.19315,-1.46729 3e-5,-1.99725 -0.19318,-2.30475 -0.56634,-1.36728 -0.90097,-1.17419 -1.17417,-0.90088 -1.36731,-0.56641 -1.46734,-0.19318 h -11.98349 -5.02436 l -1.46731,0.19318 -1.36734,0.56641 -1.17417,0.90088 -0.90094,1.17419"
           style="fill:none;stroke:#db0000;stroke-width:0.75;stroke-linecap:butt;stroke-linejoin:miter;stroke-miterlimit:10;stroke-dasharray:none;stroke-opacity:1"
           id="path4649"
           inkscape:connector-curvature="0" /><path
           d="m 97.77229,110.92863 -0.80211,1.23121 -0.45612,1.39687 -0.13611,3.0311 0.19318,2.30471 0.56637,1.36733 0.90094,1.17416 1.17417,0.90094 1.3673,0.56637 1.46733,0.19318 h 11.98349 5.02438 l 1.46732,-0.19318 1.36732,-0.56637 1.17416,-0.90094 0.90096,-1.17416 0.56635,-1.36733 0.19318,-1.46731 v -1.99725 l -0.19318,-2.30471 -0.56635,-1.36733 -0.90096,-1.17416 -1.17416,-0.90094 -1.36732,-0.56638 -1.46732,-0.19317 h -11.9835 -5.02437 l -1.46733,0.19317 -1.3673,0.56638 -1.17417,0.90094 -0.26615,0.34687"
           style="fill:none;stroke:#db0000;stroke-width:0.75;stroke-linecap:butt;stroke-linejoin:miter;stroke-miterlimit:10;stroke-dasharray:none;stroke-opacity:1"
           id="path4651"
           inkscape:connector-curvature="0" /><path
           d="M 129.79631,396.8504 H 0 V 117.23538 0 H 309.57376 439.37009 V 279.61502 396.8504 H 129.79631"
           style="fill:none;stroke:#db0000;stroke-width:0.75;stroke-linecap:butt;stroke-linejoin:miter;stroke-miterlimit:10;stroke-dasharray:none;stroke-opacity:1"
           id="path4653"
           inkscape:connector-curvature="0" /></g></g></g></svg>