0
SECTION
2
HEADER
9
$ACADVER
1
AC1009
0
ENDSEC
0
SECTION
2
TABLES
0
TABLE
2
VPORT
70
1
0
VPORT
2
ACTIVE
70
0
10
0.0
20
0.0
11
0.0
21
0.0
12
0.0
22
0.0
13
0.0
23
0.0
14
0.0
24
0.0
15
0.0
25
0.0
16
0.0
26
0.0
36
0.0
17
0.0
27
0.0
37
0.0
40
0.0
41
0.0
42
0.0
43
0.0
44
0.0
50
0.0
51
0.0
71
0
72
1000
73
1
74
3
75
0
76
0
77
0
78
0
0
ENDTAB
0
ENDSEC
0
SECTION
2
ENTITIES
0
LINE
8
hole
62
5
39
2
10
1.220838
20
4.101611
11
1.193047
21
4.102245
0
LINE
8
hole
62
5
39
2
10
1.193047
20
4.102245
11
1.174001
21
4.111495
0
LINE
8
hole
62
5
39
2
10
1.174001
20
4.111495
11
1.154798
21
4.131595
0
LINE
8
hole
62
5
39
2
10
1.154798
20
4.131595
11
1.147871
21
4.151603
0
LINE
8
hole
62
5
39
2
10
1.147871
20
4.151603
11
1.148505
21
4.179394
0
LINE
8
hole
62
5
39
2
10
1.148505
20
4.179394
11
1.157755
21
4.198441
0
LINE
8
hole
62
5
39
2
10
1.157755
20
4.198441
11
1.177854
21
4.217643
0
LINE
8
hole
62
5
39
2
10
1.177854
20
4.217643
11
1.197863
21
4.224570
0
LINE
8
hole
62
5
39
2
10
1.197863
20
4.224570
11
1.225654
21
4.223936
0
LINE
8
hole
62
5
39
2
10
1.225654
20
4.223936
11
1.244701
21
4.214686
0
LINE
8
hole
62
5
39
2
10
1.244701
20
4.214686
11
1.263903
21
4.194587
0
LINE
8
hole
62
5
39
2
10
1.263903
20
4.194587
11
1.270830
21
4.174578
0
LINE
8
hole
62
5
39
2
10
1.270830
20
4.174578
11
1.270196
21
4.146787
0
LINE
8
hole
62
5
39
2
10
1.270196
20
4.146787
11
1.260946
21
4.127741
0
LINE
8
hole
62
5
39
2
10
1.260946
20
4.127741
11
1.240847
21
4.108538
0
LINE
8
hole
62
5
39
2
10
1.240847
20
4.108538
11
1.220838
21
4.101611
0
LINE
8
hole
62
5
39
2
10
5.922811
20
1.807844
11
5.899060
21
1.822289
0
LINE
8
hole
62
5
39
2
10
5.899060
20
1.822289
11
5.887191
21
1.839823
0
LINE
8
hole
62
5
39
2
10
5.887191
20
1.839823
11
5.880610
21
1.866831
0
LINE
8
hole
62
5
39
2
10
5.880610
20
1.866831
11
5.884616
21
1.887623
0
LINE
8
hole
62
5
39
2
10
5.884616
20
1.887623
11
5.899060
21
1.911373
0
LINE
8
hole
62
5
39
2
10
5.899060
20
1.911373
11
5.916594
21
1.923243
0
LINE
8
hole
62
5
39
2
10
5.916594
20
1.923243
11
5.943603
21
1.929823
0
LINE
8
hole
62
5
39
2
10
5.943603
20
1.929823
11
5.964394
21
1.925818
0
LINE
8
hole
62
5
39
2
10
5.964394
20
1.925818
11
5.988145
21
1.911373
0
LINE
8
hole
62
5
39
2
10
5.988145
20
1.911373
11
6.000014
21
1.893839
0
LINE
8
hole
62
5
39
2
10
6.000014
20
1.893839
11
6.006595
21
1.866831
0
LINE
8
hole
62
5
39
2
10
6.006595
20
1.866831
11
6.002589
21
1.846039
0
LINE
8
hole
62
5
39
2
10
6.002589
20
1.846039
11
5.988145
21
1.822289
0
LINE
8
hole
62
5
39
2
10
5.988145
20
1.822289
11
5.970611
21
1.810419
0
LINE
8
hole
62
5
39
2
10
5.970611
20
1.810419
11
5.943603
21
1.803839
0
LINE
8
hole
62
5
39
2
10
5.943603
20
1.803839
11
5.922811
21
1.807844
0
LINE
8
hole
62
5
39
2
10
5.785867
20
0.753308
11
5.772520
21
0.777693
0
LINE
8
hole
62
5
39
2
10
5.772520
20
0.777693
11
5.771008
21
0.798812
0
LINE
8
hole
62
5
39
2
10
5.771008
20
0.798812
11
5.778814
21
0.825492
0
LINE
8
hole
62
5
39
2
10
5.778814
20
0.825492
11
5.792678
21
0.841495
0
LINE
8
hole
62
5
39
2
10
5.792678
20
0.841495
11
5.817063
21
0.854842
0
LINE
8
hole
62
5
39
2
10
5.817063
20
0.854842
11
5.838183
21
0.856354
0
LINE
8
hole
62
5
39
2
10
5.838183
20
0.856354
11
5.864862
21
0.848549
0
LINE
8
hole
62
5
39
2
10
5.864862
20
0.848549
11
5.880865
21
0.834684
0
LINE
8
hole
62
5
39
2
10
5.880865
20
0.834684
11
5.894212
21
0.810300
0
LINE
8
hole
62
5
39
2
10
5.894212
20
0.810300
11
5.895724
21
0.789180
0
LINE
8
hole
62
5
39
2
10
5.895724
20
0.789180
11
5.887919
21
0.762500
0
LINE
8
hole
62
5
39
2
10
5.887919
20
0.762500
11
5.874054
21
0.746497
0
LINE
8
hole
62
5
39
2
10
5.874054
20
0.746497
11
5.849670
21
0.733150
0
LINE
8
hole
62
5
39
2
10
5.849670
20
0.733150
11
5.828550
21
0.731638
0
LINE
8
hole
62
5
39
2
10
5.828550
20
0.731638
11
5.801870
21
0.739443
0
LINE
8
hole
62
5
39
2
10
5.801870
20
0.739443
11
5.785867
21
0.753308
0
LINE
8
hole
62
5
39
2
10
3.859690
20
2.973864
11
3.847821
21
2.991397
0
LINE
8
hole
62
5
39
2
10
3.847821
20
2.991397
11
3.841240
21
3.018406
0
LINE
8
hole
62
5
39
2
10
3.841240
20
3.018406
11
3.845246
21
3.039197
0
LINE
8
hole
62
5
39
2
10
3.845246
20
3.039197
11
3.859690
21
3.062948
0
LINE
8
hole
62
5
39
2
10
3.859690
20
3.062948
11
3.877225
21
3.074817
0
LINE
8
hole
62
5
39
2
10
3.877225
20
3.074817
11
3.904232
21
3.081398
0
LINE
8
hole
62
5
39
2
10
3.904232
20
3.081398
11
3.925024
21
3.077392
0
LINE
8
hole
62
5
39
2
10
3.925024
20
3.077392
11
3.948774
21
3.062948
0
LINE
8
hole
62
5
39
2
10
3.948774
20
3.062948
11
3.960644
21
3.045414
0
LINE
8
hole
62
5
39
2
10
3.960644
20
3.045414
11
3.967224
21
3.018406
0
LINE
8
hole
62
5
39
2
10
3.967224
20
3.018406
11
3.963219
21
2.997614
0
LINE
8
hole
62
5
39
2
10
3.963219
20
2.997614
11
3.948774
21
2.973864
0
LINE
8
hole
62
5
39
2
10
3.948774
20
2.973864
11
3.931240
21
2.961994
0
LINE
8
hole
62
5
39
2
10
3.931240
20
2.961994
11
3.904232
21
2.955414
0
LINE
8
hole
62
5
39
2
10
3.904232
20
2.955414
11
3.883441
21
2.959419
0
LINE
8
hole
62
5
39
2
10
3.883441
20
2.959419
11
3.859690
21
2.973864
0
LINE
8
hole
62
5
39
2
10
5.922811
20
4.110994
11
5.899060
21
4.125438
0
LINE
8
hole
62
5
39
2
10
5.899060
20
4.125438
11
5.887191
21
4.142972
0
LINE
8
hole
62
5
39
2
10
5.887191
20
4.142972
11
5.880610
21
4.169980
0
LINE
8
hole
62
5
39
2
10
5.880610
20
4.169980
11
5.884616
21
4.190772
0
LINE
8
hole
62
5
39
2
10
5.884616
20
4.190772
11
5.899060
21
4.214523
0
LINE
8
hole
62
5
39
2
10
5.899060
20
4.214523
11
5.916594
21
4.226392
0
LINE
8
hole
62
5
39
2
10
5.916594
20
4.226392
11
5.943603
21
4.232972
0
LINE
8
hole
62
5
39
2
10
5.943603
20
4.232972
11
5.964394
21
4.228967
0
LINE
8
hole
62
5
39
2
10
5.964394
20
4.228967
11
5.988145
21
4.214523
0
LINE
8
hole
62
5
39
2
10
5.988145
20
4.214523
11
6.000014
21
4.196988
0
LINE
8
hole
62
5
39
2
10
6.000014
20
4.196988
11
6.006595
21
4.169980
0
LINE
8
hole
62
5
39
2
10
6.006595
20
4.169980
11
6.002589
21
4.149189
0
LINE
8
hole
62
5
39
2
10
6.002589
20
4.149189
11
5.988145
21
4.125438
0
LINE
8
hole
62
5
39
2
10
5.988145
20
4.125438
11
5.970611
21
4.113569
0
LINE
8
hole
62
5
39
2
10
5.970611
20
4.113569
11
5.943603
21
4.106988
0
LINE
8
hole
62
5
39
2
10
5.943603
20
4.106988
11
5.922811
21
4.110994
0
LINE
8
hole
62
5
39
2
10
4.751551
20
1.807844
11
4.727800
21
1.822289
0
LINE
8
hole
62
5
39
2
10
4.727800
20
1.822289
11
4.715931
21
1.839823
0
LINE
8
hole
62
5
39
2
10
4.715931
20
1.839823
11
4.709351
21
1.866831
0
LINE
8
hole
62
5
39
2
10
4.709351
20
1.866831
11
4.713356
21
1.887623
0
LINE
8
hole
62
5
39
2
10
4.713356
20
1.887623
11
4.727800
21
1.911373
0
LINE
8
hole
62
5
39
2
10
4.727800
20
1.911373
11
4.745335
21
1.923243
0
LINE
8
hole
62
5
39
2
10
4.745335
20
1.923243
11
4.772342
21
1.929823
0
LINE
8
hole
62
5
39
2
10
4.772342
20
1.929823
11
4.793134
21
1.925818
0
LINE
8
hole
62
5
39
2
10
4.793134
20
1.925818
11
4.816885
21
1.911373
0
LINE
8
hole
62
5
39
2
10
4.816885
20
1.911373
11
4.828754
21
1.893839
0
LINE
8
hole
62
5
39
2
10
4.828754
20
1.893839
11
4.835335
21
1.866831
0
LINE
8
hole
62
5
39
2
10
4.835335
20
1.866831
11
4.831329
21
1.846039
0
LINE
8
hole
62
5
39
2
10
4.831329
20
1.846039
11
4.816885
21
1.822289
0
LINE
8
hole
62
5
39
2
10
4.816885
20
1.822289
11
4.799350
21
1.810419
0
LINE
8
hole
62
5
39
2
10
4.799350
20
1.810419
11
4.772342
21
1.803839
0
LINE
8
hole
62
5
39
2
10
4.772342
20
1.803839
11
4.751551
21
1.807844
0
LINE
8
hole
62
5
39
2
10
2.365724
20
4.104104
11
2.341974
21
4.118548
0
LINE
8
hole
62
5
39
2
10
2.341974
20
4.118548
11
2.330104
21
4.136083
0
LINE
8
hole
62
5
39
2
10
2.330104
20
4.136083
11
2.323524
21
4.163091
0
LINE
8
hole
62
5
39
2
10
2.323524
20
4.163091
11
2.327529
21
4.183882
0
LINE
8
hole
62
5
39
2
10
2.327529
20
4.183882
11
2.341974
21
4.207633
0
LINE
8
hole
62
5
39
2
10
2.341974
20
4.207633
11
2.359508
21
4.219502
0
LINE
8
hole
62
5
39
2
10
2.359508
20
4.219502
11
2.386516
21
4.226083
0
LINE
8
hole
62
5
39
2
10
2.386516
20
4.226083
11
2.407307
21
4.222077
0
LINE
8
hole
62
5
39
2
10
2.407307
20
4.222077
11
2.431058
21
4.207633
0
LINE
8
hole
62
5
39
2
10
2.431058
20
4.207633
11
2.442928
21
4.190099
0
LINE
8
hole
62
5
39
2
10
2.442928
20
4.190099
11
2.449508
21
4.163091
0
LINE
8
hole
62
5
39
2
10
2.449508
20
4.163091
11
2.445503
21
4.142299
0
LINE
8
hole
62
5
39
2
10
2.445503
20
4.142299
11
2.431058
21
4.118548
0
LINE
8
hole
62
5
39
2
10
2.431058
20
4.118548
11
2.413524
21
4.106679
0
LINE
8
hole
62
5
39
2
10
2.413524
20
4.106679
11
2.386516
21
4.100099
0
LINE
8
hole
62
5
39
2
10
2.386516
20
4.100099
11
2.365724
21
4.104104
0
LINE
8
hole
62
5
39
2
10
3.077461
20
1.831963
11
3.061457
21
1.845828
0
LINE
8
hole
62
5
39
2
10
3.061457
20
1.845828
11
3.048111
21
1.870212
0
LINE
8
hole
62
5
39
2
10
3.048111
20
1.870212
11
3.046599
21
1.891332
0
LINE
8
hole
62
5
39
2
10
3.046599
20
1.891332
11
3.054404
21
1.918012
0
LINE
8
hole
62
5
39
2
10
3.054404
20
1.918012
11
3.068269
21
1.934015
0
LINE
8
hole
62
5
39
2
10
3.068269
20
1.934015
11
3.092653
21
1.947362
0
LINE
8
hole
62
5
39
2
10
3.092653
20
1.947362
11
3.113773
21
1.948874
0
LINE
8
hole
62
5
39
2
10
3.113773
20
1.948874
11
3.140453
21
1.941069
0
LINE
8
hole
62
5
39
2
10
3.140453
20
1.941069
11
3.156456
21
1.927204
0
LINE
8
hole
62
5
39
2
10
3.156456
20
1.927204
11
3.169802
21
1.902820
0
LINE
8
hole
62
5
39
2
10
3.169802
20
1.902820
11
3.171315
21
1.881699
0
LINE
8
hole
62
5
39
2
10
3.171315
20
1.881699
11
3.163510
21
1.855020
0
LINE
8
hole
62
5
39
2
10
3.163510
20
1.855020
11
3.149645
21
1.839016
0
LINE
8
hole
62
5
39
2
10
3.149645
20
1.839016
11
3.125260
21
1.825670
0
LINE
8
hole
62
5
39
2
10
3.125260
20
1.825670
11
3.104141
21
1.824158
0
LINE
8
hole
62
5
39
2
10
3.104141
20
1.824158
11
3.077461
21
1.831963
0
LINE
8
hole
62
5
39
2
10
5.785867
20
5.202127
11
5.772520
21
5.226512
0
LINE
8
hole
62
5
39
2
10
5.772520
20
5.226512
11
5.771008
21
5.247631
0
LINE
8
hole
62
5
39
2
10
5.771008
20
5.247631
11
5.778814
21
5.274311
0
LINE
8
hole
62
5
39
2
10
5.778814
20
5.274311
11
5.792678
21
5.290314
0
LINE
8
hole
62
5
39
2
10
5.792678
20
5.290314
11
5.817063
21
5.303661
0
LINE
8
hole
62
5
39
2
10
5.817063
20
5.303661
11
5.838183
21
5.305173
0
LINE
8
hole
62
5
39
2
10
5.838183
20
5.305173
11
5.864862
21
5.297368
0
LINE
8
hole
62
5
39
2
10
5.864862
20
5.297368
11
5.880865
21
5.283503
0
LINE
8
hole
62
5
39
2
10
5.880865
20
5.283503
11
5.894212
21
5.259119
0
LINE
8
hole
62
5
39
2
10
5.894212
20
5.259119
11
5.895724
21
5.237999
0
LINE
8
hole
62
5
39
2
10
5.895724
20
5.237999
11
5.887919
21
5.211319
0
LINE
8
hole
62
5
39
2
10
5.887919
20
5.211319
11
5.874054
21
5.195316
0
LINE
8
hole
62
5
39
2
10
5.874054
20
5.195316
11
5.849670
21
5.181969
0
LINE
8
hole
62
5
39
2
10
5.849670
20
5.181969
11
5.828550
21
5.180457
0
LINE
8
hole
62
5
39
2
10
5.828550
20
5.180457
11
5.801870
21
5.188262
0
LINE
8
hole
62
5
39
2
10
5.801870
20
5.188262
11
5.785867
21
5.202127
0
LINE
8
hole
62
5
39
2
10
1.902829
20
3.840256
11
1.895902
21
3.860265
0
LINE
8
hole
62
5
39
2
10
1.895902
20
3.860265
11
1.896537
21
3.888055
0
LINE
8
hole
62
5
39
2
10
1.896537
20
3.888055
11
1.905787
21
3.907102
0
LINE
8
hole
62
5
39
2
10
1.905787
20
3.907102
11
1.925886
21
3.926304
0
LINE
8
hole
62
5
39
2
10
1.925886
20
3.926304
11
1.945895
21
3.933232
0
LINE
8
hole
62
5
39
2
10
1.945895
20
3.933232
11
1.973685
21
3.932598
0
LINE
8
hole
62
5
39
2
10
1.973685
20
3.932598
11
1.992732
21
3.923347
0
LINE
8
hole
62
5
39
2
10
1.992732
20
3.923347
11
2.011935
21
3.903248
0
LINE
8
hole
62
5
39
2
10
2.011935
20
3.903248
11
2.018862
21
3.883239
0
LINE
8
hole
62
5
39
2
10
2.018862
20
3.883239
11
2.018228
21
3.855449
0
LINE
8
hole
62
5
39
2
10
2.018228
20
3.855449
11
2.008978
21
3.836402
0
LINE
8
hole
62
5
39
2
10
2.008978
20
3.836402
11
1.988878
21
3.817200
0
LINE
8
hole
62
5
39
2
10
1.988878
20
3.817200
11
1.968869
21
3.810272
0
LINE
8
hole
62
5
39
2
10
1.968869
20
3.810272
11
1.941079
21
3.810906
0
LINE
8
hole
62
5
39
2
10
1.941079
20
3.810906
11
1.922032
21
3.820157
0
LINE
8
hole
62
5
39
2
10
1.922032
20
3.820157
11
1.902829
21
3.840256
0
LINE
8
hole
62
5
39
2
10
4.751551
20
4.110994
11
4.727800
21
4.125438
0
LINE
8
hole
62
5
39
2
10
4.727800
20
4.125438
11
4.715931
21
4.142972
0
LINE
8
hole
62
5
39
2
10
4.715931
20
4.142972
11
4.709351
21
4.169980
0
LINE
8
hole
62
5
39
2
10
4.709351
20
4.169980
11
4.713356
21
4.190772
0
LINE
8
hole
62
5
39
2
10
4.713356
20
4.190772
11
4.727800
21
4.214523
0
LINE
8
hole
62
5
39
2
10
4.727800
20
4.214523
11
4.745335
21
4.226392
0
LINE
8
hole
62
5
39
2
10
4.745335
20
4.226392
11
4.772342
21
4.232972
0
LINE
8
hole
62
5
39
2
10
4.772342
20
4.232972
11
4.793134
21
4.228967
0
LINE
8
hole
62
5
39
2
10
4.793134
20
4.228967
11
4.816885
21
4.214523
0
LINE
8
hole
62
5
39
2
10
4.816885
20
4.214523
11
4.828754
21
4.196988
0
LINE
8
hole
62
5
39
2
10
4.828754
20
4.196988
11
4.835335
21
4.169980
0
LINE
8
hole
62
5
39
2
10
4.835335
20
4.169980
11
4.831329
21
4.149189
0
LINE
8
hole
62
5
39
2
10
4.831329
20
4.149189
11
4.816885
21
4.125438
0
LINE
8
hole
62
5
39
2
10
4.816885
20
4.125438
11
4.799350
21
4.113569
0
LINE
8
hole
62
5
39
2
10
4.799350
20
4.113569
11
4.772342
21
4.106988
0
LINE
8
hole
62
5
39
2
10
4.772342
20
4.106988
11
4.751551
21
4.110994
0
LINE
8
hole
62
5
39
2
10
3.088165
20
4.091309
11
3.064415
21
4.105753
0
LINE
8
hole
62
5
39
2
10
3.064415
20
4.105753
11
3.052545
21
4.123287
0
LINE
8
hole
62
5
39
2
10
3.052545
20
4.123287
11
3.045965
21
4.150295
0
LINE
8
hole
62
5
39
2
10
3.045965
20
4.150295
11
3.049970
21
4.171087
0
LINE
8
hole
62
5
39
2
10
3.049970
20
4.171087
11
3.064415
21
4.194838
0
LINE
8
hole
62
5
39
2
10
3.064415
20
4.194838
11
3.081949
21
4.206707
0
LINE
8
hole
62
5
39
2
10
3.081949
20
4.206707
11
3.108957
21
4.213287
0
LINE
8
hole
62
5
39
2
10
3.108957
20
4.213287
11
3.129748
21
4.209282
0
LINE
8
hole
62
5
39
2
10
3.129748
20
4.209282
11
3.153499
21
4.194838
0
LINE
8
hole
62
5
39
2
10
3.153499
20
4.194838
11
3.165369
21
4.177303
0
LINE
8
hole
62
5
39
2
10
3.165369
20
4.177303
11
3.171949
21
4.150295
0
LINE
8
hole
62
5
39
2
10
3.171949
20
4.150295
11
3.167943
21
4.129504
0
LINE
8
hole
62
5
39
2
10
3.167943
20
4.129504
11
3.153499
21
4.105753
0
LINE
8
hole
62
5
39
2
10
3.153499
20
4.105753
11
3.135965
21
4.093884
0
LINE
8
hole
62
5
39
2
10
3.135965
20
4.093884
11
3.108957
21
4.087303
0
LINE
8
hole
62
5
39
2
10
3.108957
20
4.087303
11
3.088165
21
4.091309
0
LINE
8
hole
62
5
39
2
10
1.351166
20
2.087873
11
1.331963
21
2.107972
0
LINE
8
hole
62
5
39
2
10
1.331963
20
2.107972
11
1.325036
21
2.127981
0
LINE
8
hole
62
5
39
2
10
1.325036
20
2.127981
11
1.325670
21
2.155772
0
LINE
8
hole
62
5
39
2
10
1.325670
20
2.155772
11
1.334920
21
2.174819
0
LINE
8
hole
62
5
39
2
10
1.334920
20
2.174819
11
1.355020
21
2.194022
0
LINE
8
hole
62
5
39
2
10
1.355020
20
2.194022
11
1.375029
21
2.200948
0
LINE
8
hole
62
5
39
2
10
1.375029
20
2.200948
11
1.402819
21
2.200314
0
LINE
8
hole
62
5
39
2
10
1.402819
20
2.200314
11
1.421866
21
2.191064
0
LINE
8
hole
62
5
39
2
10
1.421866
20
2.191064
11
1.441069
21
2.170965
0
LINE
8
hole
62
5
39
2
10
1.441069
20
2.170965
11
1.447996
21
2.150956
0
LINE
8
hole
62
5
39
2
10
1.447996
20
2.150956
11
1.447362
21
2.123165
0
LINE
8
hole
62
5
39
2
10
1.447362
20
2.123165
11
1.438111
21
2.104118
0
LINE
8
hole
62
5
39
2
10
1.438111
20
2.104118
11
1.418012
21
2.084916
0
LINE
8
hole
62
5
39
2
10
1.418012
20
2.084916
11
1.398003
21
2.077989
0
LINE
8
hole
62
5
39
2
10
1.398003
20
2.077989
11
1.370212
21
2.078623
0
LINE
8
hole
62
5
39
2
10
1.370212
20
2.078623
11
1.351166
21
2.087873
0
LINE
8
hole
62
5
39
2
10
2.441717
20
2.087873
11
2.422514
21
2.107972
0
LINE
8
hole
62
5
39
2
10
2.422514
20
2.107972
11
2.415587
21
2.127981
0
LINE
8
hole
62
5
39
2
10
2.415587
20
2.127981
11
2.416221
21
2.155772
0
LINE
8
hole
62
5
39
2
10
2.416221
20
2.155772
11
2.425472
21
2.174819
0
LINE
8
hole
62
5
39
2
10
2.425472
20
2.174819
11
2.445571
21
2.194022
0
LINE
8
hole
62
5
39
2
10
2.445571
20
2.194022
11
2.465580
21
2.200948
0
LINE
8
hole
62
5
39
2
10
2.465580
20
2.200948
11
2.493371
21
2.200314
0
LINE
8
hole
62
5
39
2
10
2.493371
20
2.200314
11
2.512417
21
2.191064
0
LINE
8
hole
62
5
39
2
10
2.512417
20
2.191064
11
2.531620
21
2.170965
0
LINE
8
hole
62
5
39
2
10
2.531620
20
2.170965
11
2.538547
21
2.150956
0
LINE
8
hole
62
5
39
2
10
2.538547
20
2.150956
11
2.537913
21
2.123165
0
LINE
8
hole
62
5
39
2
10
2.537913
20
2.123165
11
2.528663
21
2.104118
0
LINE
8
hole
62
5
39
2
10
2.528663
20
2.104118
11
2.508563
21
2.084916
0
LINE
8
hole
62
5
39
2
10
2.508563
20
2.084916
11
2.488555
21
2.077989
0
LINE
8
hole
62
5
39
2
10
2.488555
20
2.077989
11
2.460763
21
2.078623
0
LINE
8
hole
62
5
39
2
10
2.460763
20
2.078623
11
2.441717
21
2.087873
0
LINE
8
hole
62
5
39
2
10
1.341974
20
3.827210
11
1.330104
21
3.844744
0
LINE
8
hole
62
5
39
2
10
1.330104
20
3.844744
11
1.323524
21
3.871752
0
LINE
8
hole
62
5
39
2
10
1.323524
20
3.871752
11
1.327529
21
3.892544
0
LINE
8
hole
62
5
39
2
10
1.327529
20
3.892544
11
1.341974
21
3.916295
0
LINE
8
hole
62
5
39
2
10
1.341974
20
3.916295
11
1.359508
21
3.928164
0
LINE
8
hole
62
5
39
2
10
1.359508
20
3.928164
11
1.386516
21
3.934744
0
LINE
8
hole
62
5
39
2
10
1.386516
20
3.934744
11
1.407307
21
3.930739
0
LINE
8
hole
62
5
39
2
10
1.407307
20
3.930739
11
1.431058
21
3.916295
0
LINE
8
hole
62
5
39
2
10
1.431058
20
3.916295
11
1.442928
21
3.898760
0
LINE
8
hole
62
5
39
2
10
1.442928
20
3.898760
11
1.449508
21
3.871752
0
LINE
8
hole
62
5
39
2
10
1.449508
20
3.871752
11
1.445503
21
3.850960
0
LINE
8
hole
62
5
39
2
10
1.445503
20
3.850960
11
1.431058
21
3.827210
0
LINE
8
hole
62
5
39
2
10
1.431058
20
3.827210
11
1.413524
21
3.815340
0
LINE
8
hole
62
5
39
2
10
1.413524
20
3.815340
11
1.386516
21
3.808760
0
LINE
8
hole
62
5
39
2
10
1.386516
20
3.808760
11
1.365724
21
3.812765
0
LINE
8
hole
62
5
39
2
10
1.365724
20
3.812765
11
1.341974
21
3.827210
0
LINE
8
hole
62
5
39
2
10
1.164808
20
1.829178
11
1.152939
21
1.846712
0
LINE
8
hole
62
5
39
2
10
1.152939
20
1.846712
11
1.146358
21
1.873721
0
LINE
8
hole
62
5
39
2
10
1.146358
20
1.873721
11
1.150364
21
1.894512
0
LINE
8
hole
62
5
39
2
10
1.150364
20
1.894512
11
1.164808
21
1.918263
0
LINE
8
hole
62
5
39
2
10
1.164808
20
1.918263
11
1.182343
21
1.930132
0
LINE
8
hole
62
5
39
2
10
1.182343
20
1.930132
11
1.209351
21
1.936713
0
LINE
8
hole
62
5
39
2
10
1.209351
20
1.936713
11
1.230142
21
1.932707
0
LINE
8
hole
62
5
39
2
10
1.230142
20
1.932707
11
1.253893
21
1.918263
0
LINE
8
hole
62
5
39
2
10
1.253893
20
1.918263
11
1.265762
21
1.900729
0
LINE
8
hole
62
5
39
2
10
1.265762
20
1.900729
11
1.272343
21
1.873721
0
LINE
8
hole
62
5
39
2
10
1.272343
20
1.873721
11
1.268337
21
1.852929
0
LINE
8
hole
62
5
39
2
10
1.268337
20
1.852929
11
1.253893
21
1.829178
0
LINE
8
hole
62
5
39
2
10
1.253893
20
1.829178
11
1.236358
21
1.817309
0
LINE
8
hole
62
5
39
2
10
1.236358
20
1.817309
11
1.209351
21
1.810729
0
LINE
8
hole
62
5
39
2
10
1.209351
20
1.810729
11
1.188559
21
1.814734
0
LINE
8
hole
62
5
39
2
10
1.188559
20
1.814734
11
1.164808
21
1.829178
0
LINE
8
hole
62
5
39
2
10
5.935811
20
3.498306
11
5.916609
21
3.518405
0
LINE
8
hole
62
5
39
2
10
5.916609
20
3.518405
11
5.909682
21
3.538414
0
LINE
8
hole
62
5
39
2
10
5.909682
20
3.538414
11
5.910315
21
3.566205
0
LINE
8
hole
62
5
39
2
10
5.910315
20
3.566205
11
5.919566
21
3.585252
0
LINE
8
hole
62
5
39
2
10
5.919566
20
3.585252
11
5.939666
21
3.604455
0
LINE
8
hole
62
5
39
2
10
5.939666
20
3.604455
11
5.959674
21
3.611382
0
LINE
8
hole
62
5
39
2
10
5.959674
20
3.611382
11
5.987465
21
3.610748
0
LINE
8
hole
62
5
39
2
10
5.987465
20
3.610748
11
6.006512
21
3.601497
0
LINE
8
hole
62
5
39
2
10
6.006512
20
3.601497
11
6.025714
21
3.581398
0
LINE
8
hole
62
5
39
2
10
6.025714
20
3.581398
11
6.032641
21
3.561389
0
LINE
8
hole
62
5
39
2
10
6.032641
20
3.561389
11
6.032007
21
3.533598
0
LINE
8
hole
62
5
39
2
10
6.032007
20
3.533598
11
6.022757
21
3.514551
0
LINE
8
hole
62
5
39
2
10
6.022757
20
3.514551
11
6.002658
21
3.495349
0
LINE
8
hole
62
5
39
2
10
6.002658
20
3.495349
11
5.982649
21
3.488422
0
LINE
8
hole
62
5
39
2
10
5.982649
20
3.488422
11
5.954858
21
3.489056
0
LINE
8
hole
62
5
39
2
10
5.954858
20
3.489056
11
5.935811
21
3.498306
0
LINE
8
hole
62
5
39
2
10
0.758646
20
0.742401
11
0.739443
21
0.762500
0
LINE
8
hole
62
5
39
2
10
0.739443
20
0.762500
11
0.732516
21
0.782509
0
LINE
8
hole
62
5
39
2
10
0.732516
20
0.782509
11
0.733150
21
0.810300
0
LINE
8
hole
62
5
39
2
10
0.733150
20
0.810300
11
0.742401
21
0.829346
0
LINE
8
hole
62
5
39
2
10
0.742401
20
0.829346
11
0.762500
21
0.848549
0
LINE
8
hole
62
5
39
2
10
0.762500
20
0.848549
11
0.782509
21
0.855476
0
LINE
8
hole
62
5
39
2
10
0.782509
20
0.855476
11
0.810300
21
0.854842
0
LINE
8
hole
62
5
39
2
10
0.810300
20
0.854842
11
0.829346
21
0.845592
0
LINE
8
hole
62
5
39
2
10
0.829346
20
0.845592
11
0.848549
21
0.825492
0
LINE
8
hole
62
5
39
2
10
0.848549
20
0.825492
11
0.855476
21
0.805483
0
LINE
8
hole
62
5
39
2
10
0.855476
20
0.805483
11
0.854842
21
0.777693
0
LINE
8
hole
62
5
39
2
10
0.854842
20
0.777693
11
0.845592
21
0.758646
0
LINE
8
hole
62
5
39
2
10
0.845592
20
0.758646
11
0.825492
21
0.739443
0
LINE
8
hole
62
5
39
2
10
0.825492
20
0.739443
11
0.805483
21
0.732516
0
LINE
8
hole
62
5
39
2
10
0.805483
20
0.732516
11
0.777693
21
0.733150
0
LINE
8
hole
62
5
39
2
10
0.777693
20
0.733150
11
0.758646
21
0.742401
0
LINE
8
hole
62
5
39
2
10
2.351166
20
1.822125
11
2.331963
21
1.842224
0
LINE
8
hole
62
5
39
2
10
2.331963
20
1.842224
11
2.325036
21
1.862233
0
LINE
8
hole
62
5
39
2
10
2.325036
20
1.862233
11
2.325670
21
1.890024
0
LINE
8
hole
62
5
39
2
10
2.325670
20
1.890024
11
2.334920
21
1.909071
0
LINE
8
hole
62
5
39
2
10
2.334920
20
1.909071
11
2.355020
21
1.928273
0
LINE
8
hole
62
5
39
2
10
2.355020
20
1.928273
11
2.375029
21
1.935200
0
LINE
8
hole
62
5
39
2
10
2.375029
20
1.935200
11
2.402819
21
1.934566
0
LINE
8
hole
62
5
39
2
10
2.402819
20
1.934566
11
2.421866
21
1.925316
0
LINE
8
hole
62
5
39
2
10
2.421866
20
1.925316
11
2.441068
21
1.905217
0
LINE
8
hole
62
5
39
2
10
2.441068
20
1.905217
11
2.447996
21
1.885208
0
LINE
8
hole
62
5
39
2
10
2.447996
20
1.885208
11
2.447362
21
1.857417
0
LINE
8
hole
62
5
39
2
10
2.447362
20
1.857417
11
2.438111
21
1.838370
0
LINE
8
hole
62
5
39
2
10
2.438111
20
1.838370
11
2.418012
21
1.819168
0
LINE
8
hole
62
5
39
2
10
2.418012
20
1.819168
11
2.398003
21
1.812241
0
LINE
8
hole
62
5
39
2
10
2.398003
20
1.812241
11
2.370212
21
1.812875
0
LINE
8
hole
62
5
39
2
10
2.370212
20
1.812875
11
2.351166
21
1.822125
0
LINE
8
hole
62
5
39
2
10
0.758646
20
5.191219
11
0.739443
21
5.211319
0
LINE
8
hole
62
5
39
2
10
0.739443
20
5.211319
11
0.732516
21
5.231328
0
LINE
8
hole
62
5
39
2
10
0.732516
20
5.231328
11
0.733150
21
5.259119
0
LINE
8
hole
62
5
39
2
10
0.733150
20
5.259119
11
0.742401
21
5.278165
0
LINE
8
hole
62
5
39
2
10
0.742401
20
5.278165
11
0.762500
21
5.297368
0
LINE
8
hole
62
5
39
2
10
0.762500
20
5.297368
11
0.782509
21
5.304295
0
LINE
8
hole
62
5
39
2
10
0.782509
20
5.304295
11
0.810300
21
5.303661
0
LINE
8
hole
62
5
39
2
10
0.810300
20
5.303661
11
0.829346
21
5.294411
0
LINE
8
hole
62
5
39
2
10
0.829346
20
5.294411
11
0.848549
21
5.274311
0
LINE
8
hole
62
5
39
2
10
0.848549
20
5.274311
11
0.855476
21
5.254302
0
LINE
8
hole
62
5
39
2
10
0.855476
20
5.254302
11
0.854842
21
5.226512
0
LINE
8
hole
62
5
39
2
10
0.854842
20
5.226512
11
0.845592
21
5.207465
0
LINE
8
hole
62
5
39
2
10
0.845592
20
5.207465
11
0.825492
21
5.188262
0
LINE
8
hole
62
5
39
2
10
0.825492
20
5.188262
11
0.805483
21
5.181335
0
LINE
8
hole
62
5
39
2
10
0.805483
20
5.181335
11
0.777693
21
5.181969
0
LINE
8
hole
62
5
39
2
10
0.777693
20
5.181969
11
0.758646
21
5.191219
0
LINE
8
hole
62
5
39
2
10
4.554572
20
3.505360
11
4.542703
21
3.522893
0
LINE
8
hole
62
5
39
2
10
4.542703
20
3.522893
11
4.536122
21
3.549902
0
LINE
8
hole
62
5
39
2
10
4.536122
20
3.549902
11
4.540128
21
3.570693
0
LINE
8
hole
62
5
39
2
10
4.540128
20
3.570693
11
4.554572
21
3.594444
0
LINE
8
hole
62
5
39
2
10
4.554572
20
3.594444
11
4.572106
21
3.606314
0
LINE
8
hole
62
5
39
2
10
4.572106
20
3.606314
11
4.599114
21
3.612894
0
LINE
8
hole
62
5
39
2
10
4.599114
20
3.612894
11
4.619906
21
3.608889
0
LINE
8
hole
62
5
39
2
10
4.619906
20
3.608889
11
4.643657
21
3.594444
0
LINE
8
hole
62
5
39
2
10
4.643657
20
3.594444
11
4.655526
21
3.576909
0
LINE
8
hole
62
5
39
2
10
4.655526
20
3.576909
11
4.662107
21
3.549902
0
LINE
8
hole
62
5
39
2
10
4.662107
20
3.549902
11
4.658101
21
3.529110
0
LINE
8
hole
62
5
39
2
10
4.658101
20
3.529110
11
4.643657
21
3.505360
0
LINE
8
hole
62
5
39
2
10
4.643657
20
3.505360
11
4.626122
21
3.493490
0
LINE
8
hole
62
5
39
2
10
4.626122
20
3.493490
11
4.599114
21
3.486910
0
LINE
8
hole
62
5
39
2
10
4.599114
20
3.486910
11
4.578323
21
3.490915
0
LINE
8
hole
62
5
39
2
10
4.578323
20
3.490915
11
4.554572
21
3.505360
0
LINE
8
hole
62
5
39
2
10
5.926619
20
2.442367
11
5.914750
21
2.459902
0
LINE
8
hole
62
5
39
2
10
5.914750
20
2.459902
11
5.908169
21
2.486909
0
LINE
8
hole
62
5
39
2
10
5.908169
20
2.486909
11
5.912175
21
2.507701
0
LINE
8
hole
62
5
39
2
10
5.912175
20
2.507701
11
5.926619
21
2.531452
0
LINE
8
hole
62
5
39
2
10
5.926619
20
2.531452
11
5.944154
21
2.543321
0
LINE
8
hole
62
5
39
2
10
5.944154
20
2.543321
11
5.971162
21
2.549902
0
LINE
8
hole
62
5
39
2
10
5.971162
20
2.549902
11
5.991953
21
2.545896
0
LINE
8
hole
62
5
39
2
10
5.991953
20
2.545896
11
6.015704
21
2.531452
0
LINE
8
hole
62
5
39
2
10
6.015704
20
2.531452
11
6.027573
21
2.513918
0
LINE
8
hole
62
5
39
2
10
6.027573
20
2.513918
11
6.034154
21
2.486909
0
LINE
8
hole
62
5
39
2
10
6.034154
20
2.486909
11
6.030148
21
2.466118
0
LINE
8
hole
62
5
39
2
10
6.030148
20
2.466118
11
6.015704
21
2.442367
0
LINE
8
hole
62
5
39
2
10
6.015704
20
2.442367
11
5.998170
21
2.430498
0
LINE
8
hole
62
5
39
2
10
5.998170
20
2.430498
11
5.971162
21
2.423917
0
LINE
8
hole
62
5
39
2
10
5.971162
20
2.423917
11
5.950370
21
2.427923
0
LINE
8
hole
62
5
39
2
10
5.950370
20
2.427923
11
5.926619
21
2.442367
0
LINE
8
hole
62
5
39
2
10
4.567618
20
2.432357
11
4.551615
21
2.446221
0
LINE
8
hole
62
5
39
2
10
4.551615
20
2.446221
11
4.538268
21
2.470606
0
LINE
8
hole
62
5
39
2
10
4.538268
20
2.470606
11
4.536756
21
2.491726
0
LINE
8
hole
62
5
39
2
10
4.536756
20
2.491726
11
4.544562
21
2.518406
0
LINE
8
hole
62
5
39
2
10
4.544562
20
2.518406
11
4.558426
21
2.534409
0
LINE
8
hole
62
5
39
2
10
4.558426
20
2.534409
11
4.582811
21
2.547755
0
LINE
8
hole
62
5
39
2
10
4.582811
20
2.547755
11
4.603930
21
2.549268
0
LINE
8
hole
62
5
39
2
10
4.603930
20
2.549268
11
4.630611
21
2.541462
0
LINE
8
hole
62
5
39
2
10
4.630611
20
2.541462
11
4.646614
21
2.527598
0
LINE
8
hole
62
5
39
2
10
4.646614
20
2.527598
11
4.659960
21
2.503213
0
LINE
8
hole
62
5
39
2
10
4.659960
20
2.503213
11
4.661473
21
2.482093
0
LINE
8
hole
62
5
39
2
10
4.661473
20
2.482093
11
4.653667
21
2.455414
0
LINE
8
hole
62
5
39
2
10
4.653667
20
2.455414
11
4.639803
21
2.439410
0
LINE
8
hole
62
5
39
2
10
4.639803
20
2.439410
11
4.615418
21
2.426064
0
LINE
8
hole
62
5
39
2
10
4.615418
20
2.426064
11
4.594298
21
2.424551
0
LINE
8
hole
62
5
39
2
10
4.594298
20
2.424551
11
4.567618
21
2.432357
0
LINE
8
hole
62
5
39
2
10
5.170687
20
4.110925
11
5.162821
21
4.129916
0
LINE
8
hole
62
5
39
2
10
5.162821
20
4.129916
11
5.160138
21
4.150295
0
LINE
8
hole
62
5
39
2
10
5.160138
20
4.150295
11
5.160138
21
4.178035
0
LINE
8
hole
62
5
39
2
10
5.160138
20
4.178035
11
5.162821
21
4.210044
0
LINE
8
hole
62
5
39
2
10
5.162821
20
4.210044
11
5.170687
21
4.229035
0
LINE
8
hole
62
5
39
2
10
5.170687
20
4.229035
11
5.183200
21
4.245343
0
LINE
8
hole
62
5
39
2
10
5.183200
20
4.245343
11
5.199508
21
4.257857
0
LINE
8
hole
62
5
39
2
10
5.199508
20
4.257857
11
5.218499
21
4.265723
0
LINE
8
hole
62
5
39
2
10
5.218499
20
4.265723
11
5.238878
21
4.268406
0
LINE
8
hole
62
5
39
2
10
5.238878
20
4.268406
11
5.405315
21
4.268406
0
LINE
8
hole
62
5
39
2
10
5.405315
20
4.268406
11
5.475098
21
4.268406
0
LINE
8
hole
62
5
39
2
10
5.475098
20
4.268406
11
5.495478
21
4.265723
0
LINE
8
hole
62
5
39
2
10
5.495478
20
4.265723
11
5.514468
21
4.257857
0
LINE
8
hole
62
5
39
2
10
5.514468
20
4.257857
11
5.530776
21
4.245343
0
LINE
8
hole
62
5
39
2
10
5.530776
20
4.245343
11
5.543289
21
4.229035
0
LINE
8
hole
62
5
39
2
10
5.543289
20
4.229035
11
5.551156
21
4.210044
0
LINE
8
hole
62
5
39
2
10
5.551156
20
4.210044
11
5.553838
21
4.189665
0
LINE
8
hole
62
5
39
2
10
5.553838
20
4.189665
11
5.553838
21
4.161926
0
LINE
8
hole
62
5
39
2
10
5.553838
20
4.161926
11
5.551156
21
4.129916
0
LINE
8
hole
62
5
39
2
10
5.551156
20
4.129916
11
5.543289
21
4.110925
0
LINE
8
hole
62
5
39
2
10
5.543289
20
4.110925
11
5.530776
21
4.094617
0
LINE
8
hole
62
5
39
2
10
5.530776
20
4.094617
11
5.514468
21
4.082105
0
LINE
8
hole
62
5
39
2
10
5.514468
20
4.082105
11
5.495478
21
4.074238
0
LINE
8
hole
62
5
39
2
10
5.495478
20
4.074238
11
5.475098
21
4.071555
0
LINE
8
hole
62
5
39
2
10
5.475098
20
4.071555
11
5.308661
21
4.071555
0
LINE
8
hole
62
5
39
2
10
5.308661
20
4.071555
11
5.238878
21
4.071555
0
LINE
8
hole
62
5
39
2
10
5.238878
20
4.071555
11
5.218499
21
4.074238
0
LINE
8
hole
62
5
39
2
10
5.218499
20
4.074238
11
5.199508
21
4.082105
0
LINE
8
hole
62
5
39
2
10
5.199508
20
4.082105
11
5.183200
21
4.094617
0
LINE
8
hole
62
5
39
2
10
5.183200
20
4.094617
11
5.170687
21
4.110925
0
LINE
8
hole
62
5
39
2
10
1.620449
20
1.803175
11
1.609308
21
1.820276
0
LINE
8
hole
62
5
39
2
10
1.609308
20
1.820276
11
1.602973
21
1.839677
0
LINE
8
hole
62
5
39
2
10
1.602973
20
1.839677
11
1.601083
21
1.881775
0
LINE
8
hole
62
5
39
2
10
1.601083
20
1.881775
11
1.603766
21
1.913785
0
LINE
8
hole
62
5
39
2
10
1.603766
20
1.913785
11
1.611632
21
1.932776
0
LINE
8
hole
62
5
39
2
10
1.611632
20
1.932776
11
1.624145
21
1.949083
0
LINE
8
hole
62
5
39
2
10
1.624145
20
1.949083
11
1.640453
21
1.961596
0
LINE
8
hole
62
5
39
2
10
1.640453
20
1.961596
11
1.659443
21
1.969463
0
LINE
8
hole
62
5
39
2
10
1.659443
20
1.969463
11
1.679823
21
1.972146
0
LINE
8
hole
62
5
39
2
10
1.679823
20
1.972146
11
1.846260
21
1.972146
0
LINE
8
hole
62
5
39
2
10
1.846260
20
1.972146
11
1.916043
21
1.972146
0
LINE
8
hole
62
5
39
2
10
1.916043
20
1.972146
11
1.936423
21
1.969463
0
LINE
8
hole
62
5
39
2
10
1.936423
20
1.969463
11
1.955413
21
1.961596
0
LINE
8
hole
62
5
39
2
10
1.955413
20
1.961596
11
1.971721
21
1.949083
0
LINE
8
hole
62
5
39
2
10
1.971721
20
1.949083
11
1.984235
21
1.932776
0
LINE
8
hole
62
5
39
2
10
1.984235
20
1.932776
11
1.992101
21
1.913785
0
LINE
8
hole
62
5
39
2
10
1.992101
20
1.913785
11
1.994784
21
1.893406
0
LINE
8
hole
62
5
39
2
10
1.994784
20
1.893406
11
1.994784
21
1.865666
0
LINE
8
hole
62
5
39
2
10
1.994784
20
1.865666
11
1.992101
21
1.833656
0
LINE
8
hole
62
5
39
2
10
1.992101
20
1.833656
11
1.984235
21
1.814666
0
LINE
8
hole
62
5
39
2
10
1.984235
20
1.814666
11
1.971721
21
1.798358
0
LINE
8
hole
62
5
39
2
10
1.971721
20
1.798358
11
1.955413
21
1.785845
0
LINE
8
hole
62
5
39
2
10
1.955413
20
1.785845
11
1.936423
21
1.777978
0
LINE
8
hole
62
5
39
2
10
1.936423
20
1.777978
11
1.916043
21
1.775295
0
LINE
8
hole
62
5
39
2
10
1.916043
20
1.775295
11
1.749606
21
1.775295
0
LINE
8
hole
62
5
39
2
10
1.749606
20
1.775295
11
1.679823
21
1.775295
0
LINE
8
hole
62
5
39
2
10
1.679823
20
1.775295
11
1.659443
21
1.777978
0
LINE
8
hole
62
5
39
2
10
1.659443
20
1.777978
11
1.640453
21
1.785845
0
LINE
8
hole
62
5
39
2
10
1.640453
20
1.785845
11
1.624145
21
1.798358
0
LINE
8
hole
62
5
39
2
10
1.624145
20
1.798358
11
1.620449
21
1.803175
0
LINE
8
boundary
62
5
39
2
10
2.065227
20
5.774311
11
0.262500
21
5.774311
0
LINE
8
boundary
62
5
39
2
10
0.262500
20
5.774311
11
0.262500
21
1.890769
0
LINE
8
boundary
62
5
39
2
10
0.262500
20
1.890769
11
0.262500
21
0.262500
0
LINE
8
boundary
62
5
39
2
10
0.262500
20
0.262500
11
4.562136
21
0.262500
0
LINE
8
boundary
62
5
39
2
10
4.562136
20
0.262500
11
6.364863
21
0.262500
0
LINE
8
boundary
62
5
39
2
10
6.364863
20
0.262500
11
6.364863
21
4.146042
0
LINE
8
boundary
62
5
39
2
10
6.364863
20
4.146042
11
6.364863
21
5.774311
0
LINE
8
boundary
62
5
39
2
10
6.364863
20
5.774311
11
2.065227
21
5.774311
0
LINE
8
annotation
62
1
39
211
10
1.007403
20
1.810017
11
1.007403
21
4.226794
0
LINE
8
annotation
62
1
39
211
10
1.007403
20
4.226794
11
0.470122
21
3.689362
0
LINE
8
frame
62
5
39
2
10
0.000000
20
0.000000
11
8.270000
21
0.000000
0
LINE
8
frame
62
5
39
2
10
8.270000
20
0.000000
11
8.270000
21
11.690000
0
LINE
8
frame
62
5
39
2
10
8.270000
20
11.690000
11
0.000000
21
11.690000
0
LINE
8
frame
62
5
39
2
10
0.000000
20
11.690000
11
0.000000
21
0.000000
0
ENDSEC
0
EOF
