<?xml version="1.0" encoding="UTF-8" standalone="no"?>
<!-- Created with Inkscape (http://www.inkscape.org/) -->

<svg
   xmlns:dc="http://purl.org/dc/elements/1.1/"
   xmlns:cc="http://creativecommons.org/ns#"
   xmlns:rdf="http://www.w3.org/1999/02/22-rdf-syntax-ns#"
   xmlns:svg="http://www.w3.org/2000/svg"
   xmlns="http://www.w3.org/2000/svg"
   xmlns:sodipodi="http://sodipodi.sourceforge.net/DTD/sodipodi-0.dtd"
   xmlns:inkscape="http://www.inkscape.org/namespaces/inkscape"
   version="1.1"
   id="svg5261"
   xml:space="preserve"
   width="545.25201"
   height="189.97636"
   viewBox="0 0 545.25201 189.97637"
   sodipodi:docname="side.svg"
   inkscape:version="0.92.3 (2405546, 2018-03-11)"><metadata
     id="metadata5267"><rdf:RDF><cc:Work
         rdf:about=""><dc:format>image/svg+xml</dc:format><dc:type
           rdf:resource="http://purl.org/dc/dcmitype/StillImage" /><dc:title></dc:title></cc:Work></rdf:RDF></metadata><defs
     id="defs5265" /><sodipodi:namedview
     pagecolor="#ffffff"
     bordercolor="#666666"
     borderopacity="1"
     objecttolerance="10"
     gridtolerance="10"
     guidetolerance="10"
     inkscape:pageopacity="0"
     inkscape:pageshadow="2"
     inkscape:window-width="1920"
     inkscape:window-height="1017"
     id="namedview5263"
     showgrid="false"
     fit-margin-top="0"
     fit-margin-left="0"
     fit-margin-right="0"
     fit-margin-bottom="0"
     inkscape:zoom="1.6823496"
     inkscape:cx="264.43546"
     inkscape:cy="75.251568"
     inkscape:window-x="1912"
     inkscape:window-y="-8"
     inkscape:window-maximized="1"
     inkscape:current-layer="g5269" /><g
     id="g5269"
     inkscape:groupmode="layer"
     inkscape:label="side"
     transform="matrix(1.3333333,0,0,-1.3333333,-24.699999,214.67637)"><g
       id="g5271"
       style="stroke:#f40000;stroke-opacity:1"><g
         id="g5273"
         transform="translate(18.9,18.9)"
         style="stroke:#f40000;stroke-opacity:1"><path
           d="m 19.25724,19.74761 -0.9609,1.7557 -0.10889,1.52062 0.56195,1.92094 0.99825,1.15224 1.75567,0.96092 1.52065,0.10889 1.92097,-0.56196 1.15225,-0.99826 0.9609,-1.7557 0.10889,-1.52062 -0.56197,-1.92095 -0.99823,-1.15223 -1.75572,-0.96092 -1.52065,-0.10889 -1.92092,0.56196 -1.15225,0.99826"
           style="fill:none;stroke:#f40000;stroke-width:0.75;stroke-linecap:butt;stroke-linejoin:miter;stroke-miterlimit:10;stroke-dasharray:none;stroke-opacity:1"
           id="path5275"
           inkscape:connector-curvature="0" /><path
           d="m 381.58401,20.40943 -0.49874,1.44065 0.0456,2.00092 0.66605,1.37136 1.44717,1.3826 1.44064,0.49872 2.00098,-0.04565 1.37134,-0.666 1.38251,-1.44716 0.49881,-1.44064 -0.0457,-2.00092 -0.66605,-1.37136 -1.44705,-1.3826 -1.44064,-0.49873 -2.00098,0.04566 -1.37137,0.666 -1.3826,1.44715"
           style="fill:none;stroke:#f40000;stroke-width:0.75;stroke-linecap:butt;stroke-linejoin:miter;stroke-miterlimit:10;stroke-dasharray:none;stroke-opacity:1"
           id="path5277"
           inkscape:connector-curvature="0" /><path
           d="m 18.7494,116.78736 -0.49872,1.44065 0.04566,2.00092 0.66599,1.37137 1.44716,1.38259 1.44061,0.49877 2.00096,-0.0457 1.37137,-0.66603 1.38258,-1.44716 0.49873,-1.44065 -0.04565,-2.00093 -0.666,-1.37137 -1.44715,-1.38253 -1.44066,-0.49877 -2.00096,0.0457 -1.37132,0.66602 -1.3826,1.44713"
           style="fill:none;stroke:#f40000;stroke-width:0.75;stroke-linecap:butt;stroke-linejoin:miter;stroke-miterlimit:10;stroke-dasharray:none;stroke-opacity:1"
           id="path5279"
           inkscape:connector-curvature="0" /><path
           d="m 381.58401,116.78736 -0.49874,1.44065 0.0456,2.00092 0.66605,1.37137 1.44717,1.38259 1.44064,0.49877 2.00098,-0.0457 1.37134,-0.66603 1.38251,-1.44716 0.49881,-1.44065 -0.0457,-2.00093 -0.66605,-1.37137 -1.44705,-1.38253 -1.44067,-0.49877 -2.00095,0.0457 -1.37137,0.66602 -1.3826,1.44713"
           style="fill:none;stroke:#f40000;stroke-width:0.75;stroke-linecap:butt;stroke-linejoin:miter;stroke-miterlimit:10;stroke-dasharray:none;stroke-opacity:1"
           id="path5281"
           inkscape:connector-curvature="0" /><path
           d="M 0,41.86978 V 0 h 287.60403 120.585 v 99.8625 41.86978 H 120.58498 0 v -99.8625"
           style="fill:none;stroke:#f40000;stroke-width:0.75;stroke-linecap:butt;stroke-linejoin:miter;stroke-miterlimit:10;stroke-dasharray:none;stroke-opacity:1"
           id="path5283"
           inkscape:connector-curvature="0" /></g></g></g></svg>