<?xml version="1.0" encoding="UTF-8" standalone="no"?>
<!-- Created with Inkscape (http://www.inkscape.org/) -->

<svg
   xmlns:dc="http://purl.org/dc/elements/1.1/"
   xmlns:cc="http://creativecommons.org/ns#"
   xmlns:rdf="http://www.w3.org/1999/02/22-rdf-syntax-ns#"
   xmlns:svg="http://www.w3.org/2000/svg"
   xmlns="http://www.w3.org/2000/svg"
   xmlns:sodipodi="http://sodipodi.sourceforge.net/DTD/sodipodi-0.dtd"
   xmlns:inkscape="http://www.inkscape.org/namespaces/inkscape"
   width="155.26459mm"
   height="140.26459mm"
   viewBox="0 0 155.26459 140.26459"
   version="1.1"
   id="svg8"
   inkscape:version="0.92.3 (2405546, 2018-03-11)"
   sodipodi:docname="top.svg">
  <defs
     id="defs2" />
  <sodipodi:namedview
     id="base"
     pagecolor="#ffffff"
     bordercolor="#666666"
     borderopacity="1.0"
     inkscape:pageopacity="0.0"
     inkscape:pageshadow="2"
     inkscape:zoom="0.98994949"
     inkscape:cx="307.2479"
     inkscape:cy="285.53245"
     inkscape:document-units="mm"
     inkscape:current-layer="layer1"
     showgrid="false"
     fit-margin-top="0"
     fit-margin-left="0"
     fit-margin-right="0"
     fit-margin-bottom="0"
     inkscape:window-width="1920"
     inkscape:window-height="1017"
     inkscape:window-x="1912"
     inkscape:window-y="-8"
     inkscape:window-maximized="1" />
  <metadata
     id="metadata5">
    <rdf:RDF>
      <cc:Work
         rdf:about="">
        <dc:format>image/svg+xml</dc:format>
        <dc:type
           rdf:resource="http://purl.org/dc/dcmitype/StillImage" />
        <dc:title></dc:title>
      </cc:Work>
    </rdf:RDF>
  </metadata>
  <g
     inkscape:label="レイヤー 1"
     inkscape:groupmode="layer"
     id="layer1"
     transform="translate(-26.238351,-39.371539)">
    <g
       transform="matrix(0.35277777,0,0,-0.35277777,19.703143,186.17133)"
       inkscape:label="top"
       id="g18">
      <g
         id="g20">
        <g
           transform="translate(18.9,18.9)"
           id="g22">
          <path
             inkscape:connector-curvature="0"
             id="path24"
             style="fill:none;stroke:#ff0000;stroke-width:0.75;stroke-linecap:butt;stroke-linejoin:miter;stroke-miterlimit:10;stroke-dasharray:none;stroke-opacity:1"
             d="m 398.55719,34.55283 -1.38266,1.44715 -0.49872,1.44066 0.0457,2.00093 0.66601,1.37136 1.44721,1.3826 1.44058,0.49873 2.00094,-0.04566 1.37134,-0.666 1.3826,-1.44715 0.49875,-1.44065 -0.0456,-2.00094 -0.66605,-1.37136 -1.44717,-1.3826 -1.44062,-0.49871 -2.00097,0.04566 -1.37128,0.66598" />
          <path
             inkscape:connector-curvature="0"
             id="path26"
             style="fill:none;stroke:#ff0000;stroke-width:0.75;stroke-linecap:butt;stroke-linejoin:miter;stroke-miterlimit:10;stroke-dasharray:none;stroke-opacity:1"
             d="m 108.89471,240.03818 -0.85463,1.26245 -0.47381,1.94455 0.28841,1.49701 1.04003,1.71003 1.26244,0.85462 1.94458,0.47377 1.49699,-0.28838 1.71006,-1.04001 0.8546,-1.26246 0.47378,-1.94458 -0.28838,-1.497 -1.04,-1.71 -1.26248,-0.85465 -1.94457,-0.47378 -1.49701,0.2884 -1.71001,1.04003" />
          <path
             inkscape:connector-curvature="0"
             id="path28"
             style="fill:none;stroke:#ff0000;stroke-width:0.75;stroke-linecap:butt;stroke-linejoin:miter;stroke-miterlimit:10;stroke-dasharray:none;stroke-opacity:1"
             d="m 19.47011,240.03818 -0.8546,1.26245 -0.47379,1.94455 0.2884,1.49701 1.03999,1.71003 1.26247,0.85462 1.94457,0.47377 1.49701,-0.28838 1.71004,-1.04001 0.85461,-1.26246 0.47378,-1.94458 -0.28839,-1.497 -1.04,-1.71 -1.26247,-0.85465 -1.94458,-0.47378 -1.49699,0.2884 -1.71005,1.04003" />
          <path
             inkscape:connector-curvature="0"
             id="path30"
             style="fill:none;stroke:#ff0000;stroke-width:0.75;stroke-linecap:butt;stroke-linejoin:miter;stroke-miterlimit:10;stroke-dasharray:none;stroke-opacity:1"
             d="m 109.55653,149.89032 -1.3826,1.44716 -0.49875,1.44063 0.0457,2.00096 0.66603,1.37131 1.44715,1.38262 1.44063,0.49874 2.00093,-0.0457 1.37136,-0.66601 1.38261,-1.44719 0.49873,-1.44058 v -1.65419 l -0.49873,-1.44063 -0.99826,-1.15225 -1.75571,-0.96093 -1.52062,-0.10888 -1.92094,0.56198 -0.27748,0.21292" />
          <path
             inkscape:connector-curvature="0"
             id="path32"
             style="fill:none;stroke:#ff0000;stroke-width:0.75;stroke-linecap:butt;stroke-linejoin:miter;stroke-miterlimit:10;stroke-dasharray:none;stroke-opacity:1"
             d="m 20.13195,149.89032 -1.3826,1.44716 -0.49873,1.44063 0.04565,2.00096 0.666,1.37131 1.44717,1.38262 1.44063,0.49874 2.00096,-0.0457 1.37133,-0.66601 1.3826,-1.44719 0.49875,-1.44058 v -1.65419 l -0.49875,-1.44063 -0.99825,-1.15225 -1.75568,-0.96093 -1.52065,-0.10888 -1.92094,0.56198 -0.27749,0.21292" />
          <path
             inkscape:connector-curvature="0"
             id="path34"
             style="fill:none;stroke:#ff0000;stroke-width:0.75;stroke-linecap:butt;stroke-linejoin:miter;stroke-miterlimit:10;stroke-dasharray:none;stroke-opacity:1"
             d="m 397.89536,355.37564 -0.85465,1.26245 -0.47378,1.94458 0.28839,1.49701 1.04004,1.71002 1.26245,0.85465 1.94458,0.47375 1.49698,-0.28836 1.71002,-1.04004 0.85461,-1.26245 0.47379,-1.94458 -0.28839,-1.49701 -1.04001,-1.71002 -1.26245,-0.85461 -1.94455,-0.47379 -1.49704,0.28836 -1.70999,1.04004" />
          <path
             inkscape:connector-curvature="0"
             id="path36"
             style="fill:none;stroke:#ff0000;stroke-width:0.75;stroke-linecap:butt;stroke-linejoin:miter;stroke-miterlimit:10;stroke-dasharray:none;stroke-opacity:1"
             d="m 35.06067,35.06069 -0.85462,1.26244 -0.47377,1.9446 0.28838,1.49699 1.04001,1.71003 1.26247,0.85463 1.94458,0.47379 1.49699,-0.28841 1.71004,-1.04001 0.85461,-1.26245 0.47379,-1.94457 -0.2884,-1.49702 -1.04,-1.71002 -1.26246,-0.85463 -1.94457,-0.47376 -1.49701,0.28839 -1.71004,1.04" />
          <path
             inkscape:connector-curvature="0"
             id="path38"
             style="fill:none;stroke:#ff0000;stroke-width:0.75;stroke-linecap:butt;stroke-linejoin:miter;stroke-miterlimit:10;stroke-dasharray:none;stroke-opacity:1"
             d="m 136.895,274.86569 -0.96092,1.75574 -0.1089,1.52063 0.56198,1.92096 0.99826,1.15222 1.75568,0.96091 1.52063,0.10891 1.92094,-0.56201 1.15224,-0.9982 0.96095,-1.75573 0.0456,-2.00092 -0.49873,-1.44067 -0.99826,-1.15222 -1.75569,-0.96094 -1.52065,-0.10889 -1.92091,0.56201 -1.15226,0.9982" />
          <path
             inkscape:connector-curvature="0"
             id="path40"
             style="fill:none;stroke:#ff0000;stroke-width:0.75;stroke-linecap:butt;stroke-linejoin:miter;stroke-miterlimit:10;stroke-dasharray:none;stroke-opacity:1"
             d="m 136.38716,116.78739 -0.49875,1.44064 0.0457,2.00094 0.666,1.37136 1.44718,1.38258 1.44061,0.49876 2.00095,-0.0456 1.37135,-0.66602 1.3826,-1.44715 0.49873,-1.44066 v -1.65416 l -0.49873,-1.44064 -0.99826,-1.15224 -1.75569,-0.96093 -1.52065,-0.10888 -1.92091,0.56199 -1.15226,0.99823 -0.50784,0.66183" />
          <path
             inkscape:connector-curvature="0"
             id="path42"
             style="fill:none;stroke:#ff0000;stroke-width:0.75;stroke-linecap:butt;stroke-linejoin:miter;stroke-miterlimit:10;stroke-dasharray:none;stroke-opacity:1"
             d="m 334.81235,139.46455 -0.49872,1.44065 0.0457,2.00093 0.66599,1.37138 1.44717,1.38257 1.44062,0.49876 2.00097,-0.0456 1.37131,-0.66602 1.3826,-1.44715 0.49878,-1.44066 v -1.65416 l -0.49878,-1.44065 -0.99823,-1.15223 -1.75568,-0.96093 -1.52063,-0.10891 -1.92096,0.56202 -1.15225,0.99822 -0.50784,0.66183" />
          <path
             inkscape:connector-curvature="0"
             id="path44"
             style="fill:none;stroke:#ff0000;stroke-width:0.75;stroke-linecap:butt;stroke-linejoin:miter;stroke-miterlimit:10;stroke-dasharray:none;stroke-opacity:1"
             d="m 35.06067,355.37564 -0.85462,1.26245 -0.47377,1.94458 0.28838,1.49701 1.04001,1.71002 1.26247,0.85465 1.94458,0.47375 1.49699,-0.28836 1.71004,-1.04004 0.85461,-1.26245 0.47379,-1.94458 -0.2884,-1.49701 -1.04,-1.71002 -1.26246,-0.85461 -1.94457,-0.47379 -1.49701,0.28836 -1.71004,1.04004" />
          <path
             inkscape:connector-curvature="0"
             id="path46"
             style="fill:none;stroke:#ff0000;stroke-width:0.75;stroke-linecap:butt;stroke-linejoin:miter;stroke-miterlimit:10;stroke-dasharray:none;stroke-opacity:1"
             d="m 334.81235,252.85039 -0.49872,1.44066 0.0457,2.00091 0.66599,1.37134 1.44717,1.3826 1.44062,0.49878 2.00097,-0.0457 1.37131,-0.66604 1.3826,-1.44718 0.49878,-1.44061 v -1.65414 l -0.49878,-1.44066 -0.99823,-1.15225 -1.75568,-0.96096 -1.52063,-0.10887 -1.92096,0.56198 -1.15225,0.99826 -0.50784,0.66184" />
          <path
             inkscape:connector-curvature="0"
             id="path48"
             style="fill:none;stroke:#ff0000;stroke-width:0.75;stroke-linecap:butt;stroke-linejoin:miter;stroke-miterlimit:10;stroke-dasharray:none;stroke-opacity:1"
             d="m 51.45203,181.02568 -1.09344,0.98167 -0.80211,1.23122 -0.45613,1.39685 -0.13611,19.00913 v 7.53653 l 0.19318,1.46734 0.56638,1.36731 0.90094,1.17418 1.17415,0.90094 1.36734,0.56635 1.46732,0.19317 h 17.97526 7.53654 l 1.46731,-0.19317 1.36733,-0.56635 1.17415,-0.90094 0.90096,-1.17418 0.56637,-1.36731 0.19316,-1.46734 v -17.97525 -7.53653 l -0.19316,-1.46735 -0.56637,-1.36729 -0.90096,-1.17417 -1.17415,-0.90097 -1.36733,-0.56634 -1.46731,-0.19316 H 62.17009 54.63355 l -1.46732,0.19316 -1.36734,0.56634 -0.34686,0.26616" />
          <path
             inkscape:connector-curvature="0"
             id="path50"
             style="fill:none;stroke:#ff0000;stroke-width:0.75;stroke-linecap:butt;stroke-linejoin:miter;stroke-miterlimit:10;stroke-dasharray:none;stroke-opacity:1"
             d="m 180.96339,170.43921 -1.31025,0.66522 -1.09345,0.98166 -0.80209,1.23122 -0.45612,1.39686 -0.13612,32.9899 v 13.39832 l 0.19319,1.46728 0.56635,1.36736 0.90094,1.17413 1.17416,0.90094 1.36732,0.56641 1.46732,0.19316 h 51.92857 21.77222 l 1.46735,-0.19316 1.36734,-0.56641 1.17413,-0.90094 0.90094,-1.17413 0.56635,-1.36736 0.1932,-1.46728 v -31.95607 -13.3983 l -0.1932,-1.46732 -0.56635,-1.36732 -0.90094,-1.17414 -1.17413,-0.90097 -1.36734,-0.56637 -1.46735,-0.19316 h -51.92856 -21.77223 l -1.46732,0.19316 -0.40393,0.16731" />
          <path
             inkscape:connector-curvature="0"
             id="path52"
             style="fill:none;stroke:#ff2c00;stroke-width:0.75;stroke-linecap:butt;stroke-linejoin:miter;stroke-miterlimit:10;stroke-dasharray:none;stroke-opacity:1"
             d="M 129.79599,396.8504 H 0 V 117.23508 0 H 309.5741 439.37009 V 279.61533 396.8504 h -309.5741" />
        </g>
      </g>
    </g>
  </g>
</svg>
